<?xml version="1.0" encoding="UTF-8"?>
<svg version="1.1" xmlns="http://www.w3.org/2000/svg" width="500" height="500">
<path d="M0 0 C3.90931027 3.52791414 7.31900815 6.76521363 7.69672108 12.26788616 C7.70099456 13.01428765 7.70526804 13.76068914 7.70967102 14.52970886 C7.71682632 15.38892944 7.72398163 16.24815002 7.73135376 17.13340759 C7.73404266 18.07317947 7.73673157 19.01295135 7.73950195 19.98120117 C7.74935875 21.46950943 7.74935875 21.46950943 7.75941467 22.98788452 C7.77915216 26.27708002 7.79081202 29.56622982 7.80078125 32.85546875 C7.80485678 33.97908625 7.8089323 35.10270374 7.81313133 36.26037025 C7.83399512 42.20881593 7.84829489 48.15723853 7.85766602 54.10571289 C7.86872421 60.24473514 7.90311682 66.38339432 7.94283772 72.52228832 C7.96900648 77.24671596 7.97735817 81.97105718 7.98094749 86.69555092 C7.98581363 88.95811728 7.99742831 91.22067978 8.01598549 93.48317528 C8.04037912 96.65468314 8.039411 99.82525287 8.0324707 102.99682617 C8.04528076 103.9264769 8.05809082 104.85612762 8.07128906 105.81394958 C8.02418287 111.7384675 7.04939188 116.41637152 3.5625 121.3125 C-1.67565851 125.48164657 -5.76075422 126.85977424 -12.4375 126.3125 C-17.70989347 124.50257388 -21.38270757 122.07797618 -24.4375 117.3125 C-25.36085472 114.54243585 -25.56864511 112.87188069 -25.58467102 110.01263428 C-25.59182632 109.13514023 -25.59898163 108.25764618 -25.60635376 107.3535614 C-25.60904266 106.393517 -25.61173157 105.4334726 -25.61450195 104.44433594 C-25.62107315 103.431017 -25.62764435 102.41769806 -25.63441467 101.37367249 C-25.65415173 98.01473926 -25.6658112 94.65585075 -25.67578125 91.296875 C-25.67985678 90.14994423 -25.6839323 89.00301346 -25.68813133 87.82132721 C-25.70899377 81.75084106 -25.72329478 75.68037753 -25.73266602 69.60986328 C-25.74373096 63.34070979 -25.77813176 57.07191118 -25.81783772 50.80288315 C-25.84398614 45.98156068 -25.8523563 41.160323 -25.85594749 36.33893585 C-25.86081798 34.02809502 -25.87244502 31.71725809 -25.89098549 29.40648651 C-25.91533841 26.17011919 -25.91441854 22.93467313 -25.9074707 19.69824219 C-25.92028076 18.74629471 -25.93309082 17.79434723 -25.94628906 16.81355286 C-25.89918194 10.78408073 -24.98285178 7.23727389 -21.4375 2.3125 C-15.04839677 -2.77270461 -7.40694259 -3.63613546 0 0 Z " fill="#AEFB4C" transform="translate(75.4375,169.6875)"/>
<path d="M0 0 C2.875 2.5625 2.875 2.5625 4.875 5.5625 C5.205 2.9225 5.535 0.2825 5.875 -2.4375 C8.845 -2.4375 11.815 -2.4375 14.875 -2.4375 C14.875 14.7225 14.875 31.8825 14.875 49.5625 C11.905 49.5625 8.935 49.5625 5.875 49.5625 C5.38 45.6025 5.38 45.6025 4.875 41.5625 C4.1015625 42.67625 4.1015625 42.67625 3.3125 43.8125 C-1.44005788 49.17436017 -6.82706722 51.34263781 -13.875 51.8125 C-20.71556773 51.71078152 -26.89350833 48.88416703 -32.125 44.5625 C-37.80846259 37.68251897 -40.71414836 30.76969799 -40.359375 21.6875 C-39.30458133 12.12403735 -35.32819797 5.92532487 -28.125 -0.4375 C-19.80012004 -5.75617331 -8.14619995 -5.66468946 0 0 Z M-24.734375 8.9609375 C-29.7352035 14.75601524 -30.5305551 19.1776441 -30.3671875 26.65625 C-29.82814646 33.12474251 -26.65072496 36.34929819 -21.94140625 40.36328125 C-17.99194732 42.97077349 -13.74403445 42.94741954 -9.125 42.5625 C-3.23579146 40.60316256 0.34168635 37.5947952 3.875 32.5625 C5.71041691 27.05624927 6.01912545 20.6250082 3.96875 15.13671875 C1.39643858 10.75884259 -1.51009342 7.82470911 -6.125 5.5625 C-12.71610286 3.941737 -19.37576775 4.30467198 -24.734375 8.9609375 Z " fill="#183A67" transform="translate(267.125,240.4375)"/>
<path d="M0 0 C2.97 0 5.94 0 9 0 C13.02848407 7.58763019 16.09691088 15.51998089 19.25 23.5 C21.1475 28.285 23.045 33.07 25 38 C29.95 25.46 34.9 12.92 40 0 C43.3 0 46.6 0 50 0 C49.29947019 4.57995784 47.64797714 8.68808607 45.90234375 12.94921875 C45.58979141 13.72070755 45.27723907 14.49219635 44.95521545 15.2870636 C44.29070291 16.92441485 43.6240193 18.56088644 42.95532227 20.1965332 C41.96014529 22.63207907 40.97264969 25.07062241 39.98632812 27.50976562 C36.68903054 35.6352968 33.31351185 43.72786142 29.81640625 51.76953125 C29.50750961 52.4946843 29.19861298 53.21983734 28.88035583 53.96696472 C26.31629024 59.7872199 23.49202952 65.35632095 18.0625 68.9375 C12.40430917 71.008802 5.91797226 70.22161616 0 70 C0 67.36 0 64.72 0 62 C0.80824219 61.98582031 1.61648438 61.97164063 2.44921875 61.95703125 C9.20227532 61.73420475 9.20227532 61.73420475 15.125 58.8125 C17.21153903 55.68269146 18.27741565 53.70946029 19 50 C18.2468076 46.63431067 16.90919025 43.56273921 15.546875 40.40234375 C14.98374603 39.034515 14.98374603 39.034515 14.40924072 37.63905334 C13.20719599 34.7308028 11.97917991 31.83437156 10.75 28.9375 C9.93705257 26.98445127 9.1258348 25.03068161 8.31640625 23.07617188 C6.8280765 19.48880871 5.32989215 15.90594012 3.81933594 12.32788086 C3.50025269 11.56772675 3.18116943 10.80757263 2.85241699 10.02438354 C2.15934785 8.37843118 1.45659769 6.73655777 0.75097656 5.09594727 C0 3 0 3 0 0 Z " fill="#173967" transform="translate(399,238)"/>
<path d="M0 0 C5.21964677 5.2069469 6.82882056 11.78123634 7.05102539 19.0012207 C7.05086859 20.41358412 7.04531003 21.82595433 7.03515625 23.23828125 C7.0337413 23.98587204 7.03232635 24.73346283 7.03086853 25.50370789 C7.02529764 27.87751365 7.0127506 30.25122303 7 32.625 C6.99498123 34.24023301 6.99041899 35.8554675 6.98632812 37.47070312 C6.97533775 41.41800555 6.95809332 45.36523647 6.9375 49.3125 C3.6375 49.3125 0.3375 49.3125 -3.0625 49.3125 C-3.07708252 48.28366699 -3.09166504 47.25483398 -3.10668945 46.19482422 C-3.16488657 42.35903053 -3.24211703 38.52381078 -3.32495117 34.68847656 C-3.35810018 33.03199616 -3.38616309 31.37540554 -3.40893555 29.71875 C-3.44266732 27.33025366 -3.49498959 24.94275829 -3.55078125 22.5546875 C-3.55717117 21.82007294 -3.5635611 21.08545837 -3.57014465 20.32858276 C-3.70332292 15.61703303 -4.52121519 12.2939581 -7.0625 8.3125 C-11.76899929 5.39447044 -15.45445283 4.79937908 -20.91796875 5.68359375 C-24.58788736 6.75983582 -26.53733909 8.48672469 -29.0625 11.3125 C-32.84544087 18.81457309 -32.61579633 26.5903528 -32.75 34.8125 C-32.78322842 36.22138486 -32.81772305 37.63024045 -32.85351562 39.0390625 C-32.93560738 42.46346131 -33.00488811 45.88761644 -33.0625 49.3125 C-36.0325 49.3125 -39.0025 49.3125 -42.0625 49.3125 C-42.0625 32.1525 -42.0625 14.9925 -42.0625 -2.6875 C-39.0925 -2.6875 -36.1225 -2.6875 -33.0625 -2.6875 C-32.7325 -0.7075 -32.4025 1.2725 -32.0625 3.3125 C-31.5778125 2.90257812 -31.093125 2.49265625 -30.59375 2.0703125 C-21.62541743 -5.13884714 -9.89684808 -7.82102613 0 0 Z " fill="#163866" transform="translate(334.0625,240.6875)"/>
<path d="M0 0 C4.92691233 4.56064307 7.5899303 9.24334994 8.17370605 16.0149231 C8.22960004 18.19897753 8.22532627 20.37404529 8.1953125 22.55859375 C8.1924826 23.34774673 8.18965271 24.13689972 8.18673706 24.94996643 C8.17563057 27.44597172 8.15054455 29.94160498 8.125 32.4375 C8.11495785 34.13996874 8.10583417 35.84244316 8.09765625 37.54492188 C8.0757226 41.69675576 8.04125977 45.84831502 8 50 C5.03 50 2.06 50 -1 50 C-1.01458252 49.10804932 -1.02916504 48.21609863 -1.04418945 47.29711914 C-1.10570661 43.9475861 -1.17993981 40.59881291 -1.26245117 37.24975586 C-1.29544593 35.8078043 -1.32355477 34.36573148 -1.34643555 32.92358398 C-1.23087171 19.69366222 -1.23087171 19.69366222 -6.625 8 C-11.103008 6.11452295 -15.53140774 5.23977609 -20.2578125 6.6953125 C-24.01368311 8.45544375 -27.14060747 10.17791536 -29 14 C-31.10414144 21.68330434 -31.42240886 29.12345982 -31.625 37.0625 C-31.68300781 38.93325195 -31.68300781 38.93325195 -31.7421875 40.84179688 C-31.83575358 43.89439017 -31.92149672 46.94698847 -32 50 C-34.97 50 -37.94 50 -41 50 C-41 32.84 -41 15.68 -41 -2 C-38.03 -2 -35.06 -2 -32 -2 C-31.67 0.31 -31.34 2.62 -31 5 C-30.29875 4.236875 -29.5975 3.47375 -28.875 2.6875 C-20.7647809 -4.89379177 -9.38451161 -6.25634107 0 0 Z " fill="#0C3060" transform="translate(135,240)"/>
<path d="M0 0 C3.34901441 3.24098169 3.56226102 6.44751465 4 11 C1.03 11 -1.94 11 -5 11 C-5.309375 10.05125 -5.61875 9.1025 -5.9375 8.125 C-8.17163413 4.73994829 -8.60107401 4.43722879 -12.3125 3.5 C-16.38130839 2.84395435 -19.25984752 3.08431214 -23 5 C-25.36692966 7.84826598 -25.36692966 7.84826598 -24.625 11.1875 C-24.41875 12.115625 -24.2125 13.04375 -24 14 C-18.96262873 15.76307994 -14.01831859 17.25465483 -8.8125 18.4375 C1.02900121 20.8916148 1.02900121 20.8916148 4.08984375 25.71875 C6.24248751 30.37511248 6.18256815 34.063957 4.79296875 38.95703125 C3.12908312 43.24379079 0.972394 45.42070145 -2.9375 47.75 C-10.84634745 50.978101 -18.93997099 50.98913839 -26.92578125 47.96484375 C-31.07195028 46.03621145 -34.11527952 43.96381136 -36.03125 39.7109375 C-38 33.96875 -38 33.96875 -38 32 C-34.7 32 -31.4 32 -28 32 C-27.79375 32.928125 -27.5875 33.85625 -27.375 34.8125 C-26.25731118 38.14426894 -26.25731118 38.14426894 -23.4375 39.875 C-18.00808137 41.65190064 -13.22510156 42.0661945 -8 39.5625 C-6.11336617 38.1539966 -6.11336617 38.1539966 -5 37 C-4.58297878 34.0842309 -4.58297878 34.0842309 -5 31 C-8.72158359 27.17398422 -13.88139183 26.67624378 -18.89257812 25.62695312 C-24.87126653 24.2751021 -30.2734455 22.45059348 -33.9375 17.25 C-35.65614528 11.99296738 -35.71555504 7.95836117 -33.8125 2.75 C-30.86505779 -1.72198128 -27.9627256 -3.94092316 -22.8125 -5.3125 C-14.03835143 -6.91574974 -6.98043868 -5.65482653 0 0 Z " fill="#1A3B68" transform="translate(186,242)"/>
<path d="M0 0 C5.44135326 2.87016436 8.94561502 7.0076535 11.27734375 12.625 C12.19477027 18.03781646 12.37268881 22.63703036 9.66796875 27.55859375 C6.45061436 32.07781577 3.3046472 35.06498873 -1.97265625 37 C-8.15435125 37.90907279 -12.56462049 37.28394513 -18.09765625 34.3125 C-22.50970224 30.60237042 -25.61253602 26.83257969 -26.41796875 20.98828125 C-26.69638094 14.9281759 -25.64921852 10.27779093 -22.09765625 5.3125 C-15.81635922 -0.65473218 -8.4586802 -2.77230487 0 0 Z " fill="#AFFB4F" transform="translate(476.09765625,258.6875)"/>
<path d="M0 0 C4.50688356 2.32805906 7.67386816 5.83012165 9.83203125 10.3515625 C11.71973701 16.72548257 10.7991697 22.46311014 7.83203125 28.3515625 C4.13908386 32.94279439 0.20505298 35.9331241 -5.75 36.671875 C-12.16122956 36.93498976 -16.04426343 36.24557854 -21.16796875 32.3515625 C-25.51974416 28.01111984 -27.31762728 24.30895107 -27.54296875 18.1640625 C-27.4890119 12.33672262 -25.95647534 8.72847475 -22.16796875 4.3515625 C-16.04144321 -1.33735407 -8.03072757 -2.40198338 0 0 Z " fill="#AFFB4E" transform="translate(27.16796875,168.6484375)"/>
<path d="M0 0 C3.46679688 0.04882812 3.46679688 0.04882812 6.93359375 0.09765625 C6.93359375 5.37765625 6.93359375 10.65765625 6.93359375 16.09765625 C12.54359375 16.09765625 18.15359375 16.09765625 23.93359375 16.09765625 C23.93359375 18.73765625 23.93359375 21.37765625 23.93359375 24.09765625 C18.32359375 24.09765625 12.71359375 24.09765625 6.93359375 24.09765625 C7.03066825 28.29740551 7.13347844 32.49619928 7.25097656 36.6953125 C7.28919399 38.12296023 7.32405947 39.55070188 7.35546875 40.97851562 C7.40127776 43.03419493 7.45924355 45.08923179 7.51953125 47.14453125 C7.5666626 48.99836426 7.5666626 48.99836426 7.61474609 50.88964844 C7.91240652 53.88448607 8.26555944 55.6270981 9.93359375 58.09765625 C12.6354243 59.44857153 15.05167581 59.43623683 18.05859375 59.66015625 C19.15429688 59.74394531 20.25 59.82773437 21.37890625 59.9140625 C22.64347656 60.00494141 22.64347656 60.00494141 23.93359375 60.09765625 C23.93359375 62.73765625 23.93359375 65.37765625 23.93359375 68.09765625 C21.37044876 68.17897812 18.80990957 68.238298 16.24609375 68.28515625 C15.52486328 68.31029297 14.80363281 68.33542969 14.06054688 68.36132812 C8.07053243 68.44338312 5.02271564 67.06739974 0.74609375 63.03515625 C-4.09274392 55.1929021 -3.32038592 45.37225347 -3.19140625 36.47265625 C-3.18238281 35.27769531 -3.17335937 34.08273438 -3.1640625 32.8515625 C-3.14071804 29.93350556 -3.10485584 27.01555325 -3.06640625 24.09765625 C-6.69640625 24.09765625 -10.32640625 24.09765625 -14.06640625 24.09765625 C-14.06640625 21.45765625 -14.06640625 18.81765625 -14.06640625 16.09765625 C-10.43640625 16.09765625 -6.80640625 16.09765625 -3.06640625 16.09765625 C-3.07800781 15.02644531 -3.08960938 13.95523438 -3.1015625 12.8515625 C-3.11093924 11.45442882 -3.12003956 10.05729326 -3.12890625 8.66015625 C-3.14147461 7.59958008 -3.14147461 7.59958008 -3.15429688 6.51757812 C-3.16294213 4.71072066 -3.11860636 2.90378022 -3.06640625 1.09765625 C-2.06640625 0.09765625 -2.06640625 0.09765625 0 0 Z " fill="#1A3C69" transform="translate(203.06640625,221.90234375)"/>
<path d="M0 0 C2.97 0 5.94 0 9 0 C9 5.28 9 10.56 9 16 C14.94 16 20.88 16 27 16 C27 18.64 27 21.28 27 24 C21.06 24 15.12 24 9 24 C9.11424672 28.18804419 9.24100256 32.37508001 9.375 36.5625 C9.4059375 37.74392578 9.436875 38.92535156 9.46875 40.14257812 C9.40194941 50.36974031 9.40194941 50.36974031 14 59 C16.8595077 59.42645229 16.8595077 59.42645229 20.0625 59.5625 C25.90277778 59.90277778 25.90277778 59.90277778 27 61 C27.04092937 63.33297433 27.04241723 65.66705225 27 68 C24.29057607 68.10861833 21.585561 68.18758577 18.875 68.25 C18.11445313 68.28351563 17.35390625 68.31703125 16.5703125 68.3515625 C11.21157713 68.44395449 8.25188248 67.55730015 4 64 C0.14628903 58.68453659 -0.1241553 54.2938941 -0.09765625 47.828125 C-0.0962413 47.1457074 -0.09482635 46.46328979 -0.09336853 45.76019287 C-0.08779084 43.59008316 -0.07524254 41.4200783 -0.0625 39.25 C-0.05748211 37.77474108 -0.05291971 36.29948053 -0.04882812 34.82421875 C-0.03782875 31.21611202 -0.02057953 27.60806625 0 24 C-3.96 24 -7.92 24 -12 24 C-12 21.36 -12 18.72 -12 16 C-8.04 16 -4.08 16 0 16 C0 10.72 0 5.44 0 0 Z " fill="#153765" transform="translate(354,222)"/>
<path d="M0 0 C2.97 0 5.94 0 9 0 C9 23.76 9 47.52 9 72 C6.03 72 3.06 72 0 72 C0 48.24 0 24.48 0 0 Z " fill="#0E3161" transform="translate(385,218)"/>
<path d="M0 0 C2.97 0 5.94 0 9 0 C9.33 2.31 9.66 4.62 10 7 C10.763125 6.175 11.52625 5.35 12.3125 4.5 C15 2 15 2 18 2 C16.71451591 3.33929505 15.42141845 4.67128643 14.125 6 C13.40570313 6.7425 12.68640625 7.485 11.9453125 8.25 C10 10 10 10 8 10 C8 7.03 8 4.06 8 1 C5.69 1 3.38 1 1 1 C1 17.83 1 34.66 1 52 C0.67 52 0.34 52 0 52 C0 34.84 0 17.68 0 0 Z " fill="#657C9A" transform="translate(94,238)"/>
<path d="M0 0 C2.64 0 5.28 0 8 0 C8.33 2.31 8.66 4.62 9 7 C9.763125 6.175 10.52625 5.35 11.3125 4.5 C14 2 14 2 17 2 C15.71451591 3.33929505 14.42141845 4.67128643 13.125 6 C12.40570313 6.7425 11.68640625 7.485 10.9453125 8.25 C9 10 9 10 7 10 C7 7.03 7 4.06 7 1 C4.69 1 2.38 1 0 1 C0 0.67 0 0.34 0 0 Z " fill="#466185" transform="translate(95,238)"/>
</svg>
